<svg width="42" height="43" viewBox="0 0 42 43" fill="none" xmlns="http://www.w3.org/2000/svg">
<path d="M37.8848 29.111L31.9462 28.4329C31.2479 28.3509 30.5401 28.4282 29.876 28.6591C29.2119 28.8899 28.6087 29.2682 28.1118 29.7656L23.8098 34.0676C17.1726 30.692 11.7778 25.2972 8.40215 18.6599L12.7275 14.3346C13.7329 13.3292 14.2239 11.9264 14.0602 10.5002L13.3822 4.60831C13.2496 3.46775 12.7023 2.41578 11.8443 1.65267C10.9863 0.889555 9.8777 0.468609 8.72948 0.469974H4.68467C2.04268 0.469974 -0.155074 2.66773 0.00858874 5.30972C1.24775 25.2766 17.2166 41.222 37.16 42.4612C39.802 42.6248 41.9998 40.4271 41.9998 37.7851V33.7403C42.0232 31.3789 40.2462 29.3915 37.8848 29.111Z" fill="#6C9316"/>
</svg>
