<svg width="35" height="33" viewBox="0 0 35 33" fill="none" xmlns="http://www.w3.org/2000/svg">
<path fill-rule="evenodd" clip-rule="evenodd" d="M33.7992 0.494339C35.0252 1.2961 35.3688 2.93779 34.5671 4.16375L16.5382 31.7374C16.3281 32.0586 16.0508 32.3305 15.7254 32.5341C15.4 32.7377 15.0342 32.8682 14.6534 32.9166C14.2726 32.965 13.8859 32.9301 13.5199 32.8144C13.1539 32.6987 12.8174 32.5049 12.5336 32.2464L0.867856 21.6412C0.347509 21.1681 0.0364105 20.5077 0.00299751 19.8052C-0.0304155 19.1027 0.216594 18.4158 0.689688 17.8954C1.16278 17.3751 1.8232 17.064 2.52567 17.0306C3.22814 16.9971 3.91511 17.2442 4.43546 17.7172L13.802 26.2311L30.1298 1.26216C30.5147 0.673841 31.1174 0.262457 31.8055 0.118471C32.4937 -0.0255157 33.2108 0.109684 33.7992 0.494339Z" fill="white"/>
</svg>
