<svg width="50" height="50" viewBox="0 0 50 50" fill="none" xmlns="http://www.w3.org/2000/svg">
<g clip-path="url(#clip0_343_771)">
<path fill-rule="evenodd" clip-rule="evenodd" d="M48.8542 12.3915C49.2 11.254 48.8542 10.4165 47.1979 10.4165H41.7292C40.3375 10.4165 39.6958 11.1394 39.3479 11.9373C39.3479 11.9373 36.5667 18.5957 32.6271 22.9207C31.3521 24.1748 30.7729 24.5728 30.0771 24.5728C29.7292 24.5728 29.2062 24.1748 29.2062 23.0353V12.3915C29.2062 11.0248 28.8229 10.4165 27.6646 10.4165H19.0646C18.1958 10.4165 17.6729 11.0498 17.6729 11.6519C17.6729 12.9457 19.6437 13.2457 19.8458 16.8873V24.7998C19.8458 26.5353 19.5271 26.8498 18.8312 26.8498C16.9771 26.8498 12.4667 20.1603 9.78958 12.5061C9.27083 11.0165 8.74583 10.4165 7.34792 10.4165H1.875C0.3125 10.4165 0 11.1394 0 11.9373C0 13.3582 1.85417 20.4165 8.63542 29.7519C13.1562 36.1269 19.5208 39.5832 25.3187 39.5832C28.7958 39.5832 29.225 38.8165 29.225 37.4936V32.6748C29.225 31.1394 29.5542 30.8332 30.6562 30.8332C31.4688 30.8332 32.8583 31.2332 36.1042 34.3061C39.8125 37.9498 40.4229 39.5832 42.5104 39.5832H47.9792C49.5417 39.5832 50.325 38.8165 49.875 37.2998C49.3792 35.7915 47.6083 33.6019 45.2604 31.004C43.9854 29.5248 42.0729 27.9311 41.4917 27.1332C40.6812 26.1103 40.9125 25.654 41.4917 24.7436C41.4917 24.7436 48.1583 15.5228 48.8521 12.3915H48.8542Z" fill="#6C9316"/>
</g>
<defs>
<clipPath id="clip0_343_771">
<rect width="50" height="50" fill="white"/>
</clipPath>
</defs>
</svg>
